<?xml version="1.0"?><svg xmlns="http://www.w3.org/2000/svg"  viewBox="0 0 64 64" width="64px" height="64px">    <path d="M 24.5 4 C 10.99 4 7.6258444e-16 12.748 0 23.5 C 0 29.739 3.73625 35.578469 10.03125 39.230469 C 9.81525 41.991469 9.2207187 44.705687 8.2617188 47.304688 C 8.1267188 47.669687 8.2161875 48.081422 8.4921875 48.357422 C 8.6821875 48.548422 8.9382188 48.650391 9.1992188 48.650391 C 9.3152188 48.650391 9.434875 48.629891 9.546875 48.587891 C 13.275875 47.214891 16.657422 45.205422 19.607422 42.607422 C 20.977504 42.83022 22.378637 42.937773 23.787109 42.970703 C 26.24212 50.08635 34.213655 55 43.5 55 C 45.1 55 46.687609 54.851641 48.224609 54.556641 C 51.104609 57.025641 54.383422 58.948344 57.982422 60.277344 C 58.096422 60.318344 58.214078 60.339844 58.330078 60.339844 C 58.591078 60.339844 58.848062 60.237875 59.039062 60.046875 C 59.315063 59.769875 59.403578 59.356234 59.267578 58.990234 C 58.264578 56.298234 57.664516 53.468359 57.478516 50.568359 C 61.630516 47.464359 64 43.094 64 38.5 C 64 31.00778 57.85611 24.574741 48.970703 22.613281 C 48.380224 12.278381 37.608871 4 24.5 4 z M 24.5 6 C 36.851 6 46.943 13.816781 47 23.425781 L 47.015625 23.425781 C 47.013803 23.450778 47 23.475272 47 23.5 C 47 33.149 36.911 41 24.5 41 C 22.809 41 21.118516 40.850641 19.478516 40.556641 C 19.175516 40.502641 18.858906 40.591781 18.628906 40.800781 C 16.307906 42.907781 13.692078 44.61925 10.830078 45.90625 C 11.513078 43.57125 11.928359 41.166516 12.068359 38.728516 C 12.090359 38.342516 11.889781 37.977969 11.550781 37.792969 C 5.5707812 34.521969 2 29.18 2 23.5 C 2 13.851 12.094 6 24.5 6 z M 25.359375 9 C 23.545375 9 21.754109 9.1727187 20.037109 9.5117188 C 19.495109 9.6187188 19.142047 10.143547 19.248047 10.685547 C 19.342047 11.162547 19.760516 11.492188 20.228516 11.492188 C 20.292516 11.492188 20.356875 11.485656 20.421875 11.472656 C 22.012875 11.158656 23.673375 11 25.359375 11 C 25.912375 11 26.359375 10.552 26.359375 10 C 26.359375 9.448 25.912375 9 25.359375 9 z M 15.529297 10.925781 C 15.399719 10.926516 15.270031 10.953062 15.144531 11.007812 C 8.8875312 13.689812 5 18.757375 5 24.234375 C 5 24.786375 5.447 25.234375 6 25.234375 C 6.553 25.234375 7 24.787375 7 24.234375 C 7 19.500375 10.339641 15.243703 15.931641 12.845703 C 16.438641 12.628703 16.673078 12.041203 16.455078 11.533203 C 16.292328 11.152203 15.918031 10.923578 15.529297 10.925781 z M 48.955078 24.646484 C 56.693072 26.502929 62 32.073513 62 38.5 C 62 42.599 59.767047 46.520719 55.873047 49.261719 C 55.594047 49.457719 55.435172 49.784 55.451172 50.125 C 55.568172 52.674 55.986312 55.175844 56.695312 57.589844 C 53.947313 56.351844 51.423875 54.722469 49.171875 52.730469 C 48.987875 52.567469 48.751766 52.480469 48.509766 52.480469 C 48.439766 52.480469 48.371734 52.486953 48.302734 52.501953 C 46.747734 52.832953 45.132 53 43.5 53 C 42.987108 53 42.477502 52.980657 41.972656 52.947266 C 41.773612 52.934092 41.578433 52.908851 41.380859 52.890625 C 41.063873 52.861394 40.746378 52.834947 40.433594 52.792969 C 40.237706 52.766671 40.045637 52.730414 39.851562 52.699219 C 39.554983 52.651551 39.258773 52.603794 38.966797 52.544922 C 38.754883 52.502196 38.547174 52.450844 38.337891 52.402344 C 38.05823 52.337526 37.778512 52.27217 37.503906 52.197266 C 37.316252 52.146079 37.132397 52.088999 36.947266 52.033203 C 36.665363 51.948239 36.385047 51.861038 36.109375 51.765625 C 35.91598 51.698692 35.725291 51.626641 35.535156 51.554688 C 35.276609 51.456825 35.019747 51.354977 34.767578 51.248047 C 34.581126 51.16899 34.397618 51.0878 34.214844 51.003906 C 33.96872 50.890931 33.725438 50.773875 33.486328 50.652344 C 33.305622 50.560485 33.127672 50.465762 32.951172 50.369141 C 32.722683 50.24407 32.498456 50.11527 32.277344 49.982422 C 32.099661 49.875661 31.922702 49.767897 31.75 49.65625 C 31.537878 49.51911 31.331238 49.376733 31.126953 49.232422 C 30.964935 49.11797 30.803371 49.003601 30.646484 48.884766 C 30.438006 48.726849 30.238115 48.561914 30.039062 48.396484 C 29.898096 48.279326 29.7552 48.163783 29.619141 48.042969 C 29.43505 47.879499 29.260725 47.709026 29.085938 47.539062 C 28.941849 47.398956 28.793788 47.261564 28.65625 47.117188 C 28.487047 46.939549 28.330816 46.754198 28.171875 46.570312 C 28.055809 46.436044 27.934636 46.305457 27.824219 46.167969 C 27.646892 45.947145 27.484521 45.717098 27.322266 45.488281 C 27.240411 45.372836 27.150164 45.261936 27.072266 45.144531 C 26.895004 44.877409 26.736192 44.603023 26.580078 44.326172 C 26.530908 44.238987 26.474746 44.154518 26.427734 44.066406 C 26.236653 43.708171 26.064339 43.341538 25.910156 42.96875 C 25.952327 42.96685 25.993042 42.961055 26.035156 42.958984 C 26.536374 42.93431 27.028785 42.88437 27.521484 42.835938 C 27.982195 42.790666 28.438129 42.73538 28.890625 42.669922 C 29.225572 42.621483 29.558579 42.570924 29.888672 42.511719 C 30.326504 42.433159 30.75687 42.341187 31.185547 42.244141 C 31.501224 42.172741 31.81657 42.102626 32.126953 42.021484 C 32.554296 41.909656 32.971996 41.782185 33.388672 41.652344 C 33.699771 41.555516 34.011609 41.462029 34.316406 41.355469 C 34.700872 41.220902 35.073372 41.071541 35.447266 40.921875 C 35.762601 40.795834 36.081257 40.675488 36.388672 40.539062 C 36.715491 40.393792 37.028262 40.232888 37.345703 40.076172 C 37.68383 39.909542 38.026546 39.749462 38.353516 39.570312 C 38.611605 39.428635 38.854625 39.272328 39.105469 39.123047 C 39.46011 38.912419 39.822587 38.705715 40.162109 38.480469 C 40.185641 38.46482 40.207011 38.447359 40.230469 38.431641 C 45.240362 35.081876 48.550527 30.171356 48.955078 24.646484 z M 39.865234 26.027344 C 39.475938 26.016844 39.099484 26.236781 38.927734 26.613281 C 38.698734 27.115281 38.920828 27.7085 39.423828 27.9375 L 41.242188 28.765625 C 41.376187 28.826625 41.51825 28.855469 41.65625 28.855469 C 42.03625 28.855469 42.398406 28.638531 42.566406 28.269531 C 42.795406 27.767531 42.573313 27.174312 42.070312 26.945312 L 40.251953 26.117188 C 40.126453 26.059687 39.995 26.030844 39.865234 26.027344 z M 37.099609 29.720703 C 36.844234 29.704703 36.5825 29.784797 36.375 29.966797 C 35.961 30.332797 35.920156 30.963906 36.285156 31.378906 L 37.607422 32.880859 C 37.804422 33.105859 38.081422 33.21875 38.357422 33.21875 C 38.593422 33.21875 38.829531 33.13675 39.019531 32.96875 C 39.433531 32.60275 39.472422 31.971641 39.107422 31.556641 L 37.785156 30.056641 C 37.603156 29.849641 37.354984 29.736703 37.099609 29.720703 z M 32.976562 32.25 C 32.846688 32.252563 32.715844 32.281641 32.589844 32.337891 C 32.084844 32.561891 31.857984 33.15225 32.083984 33.65625 L 32.898438 35.482422 C 33.064438 35.854422 33.4295 36.076172 33.8125 36.076172 C 33.9485 36.076172 34.08775 36.048281 34.21875 35.988281 C 34.72375 35.764281 34.950609 35.173922 34.724609 34.669922 L 33.910156 32.84375 C 33.742156 32.465 33.366188 32.242312 32.976562 32.25 z M 28.199219 33.664062 C 27.655219 33.761063 27.293625 34.280219 27.390625 34.824219 L 27.740234 36.794922 C 27.826234 37.278922 28.246656 37.619141 28.722656 37.619141 C 28.779656 37.619141 28.838438 37.613516 28.898438 37.603516 C 29.442437 37.506516 29.805984 36.989312 29.708984 36.445312 L 29.359375 34.474609 C 29.263375 33.931609 28.751219 33.565063 28.199219 33.664062 z M 57 37 C 56.447 37 56 37.447 56 38 C 56 39.269 55.697609 40.520703 55.099609 41.720703 C 54.853609 42.214703 55.055781 42.814547 55.550781 43.060547 C 55.692781 43.131547 55.845141 43.164062 55.994141 43.164062 C 56.361141 43.164062 56.715625 42.961375 56.890625 42.609375 C 57.626625 41.131375 58 39.58 58 38 C 58 37.447 57.553 37 57 37 z M 53.457031 44.527344 C 53.201531 44.513844 52.940828 44.59725 52.736328 44.78125 C 50.426328 46.85725 47.323 48 44 48 C 43.447 48 43 48.447 43 49 C 43 49.553 43.447 50 44 50 C 47.818 50 51.396266 48.675531 54.072266 46.269531 C 54.483266 45.900531 54.517437 45.267422 54.148438 44.857422 C 53.962938 44.651422 53.712531 44.540844 53.457031 44.527344 z"/></svg>