<?xml version="1.0"?><svg xmlns="http://www.w3.org/2000/svg"  viewBox="0 0 64 64" width="64px" height="64px">    <path d="M 10 12 C 8.37 12 7.1097656 13.200781 7.0097656 14.800781 C 6.9997656 14.860781 7 14.93 7 15 L 7 18 L 4 18 C 2.37 18 1.1097656 19.200781 1.0097656 20.800781 C 0.99976563 20.860781 1 20.93 1 21 L 1 49 C 1 50.7 2.3 52 4 52 L 54 52 C 55.7 52 57 50.7 57 49 L 57 46 L 60 46 C 61.7 46 63 44.7 63 43 L 63 42 L 63 15 C 63 13.3 61.7 12 60 12 L 10 12 z M 10 14 L 60 14 C 60.6 14 61 14.4 61 15 L 61 42 L 61 43 C 61 43.6 60.6 44 60 44 L 10 44 C 9.4 44 9 43.6 9 43 L 9 42 L 9 15 C 9 14.4 9.4 14 10 14 z M 22 16 C 21.4 16 21 16.4 21 17 L 21 19 C 21 19.6 21.4 20 22 20 C 22.6 20 23 19.6 23 19 L 23 17 C 23 16.4 22.6 16 22 16 z M 27 16 C 26.4 16 26 16.4 26 17 L 26 19 C 26 19.6 26.4 20 27 20 C 27.6 20 28 19.6 28 19 L 28 17 C 28 16.4 27.6 16 27 16 z M 32 16 C 31.4 16 31 16.4 31 17 L 31 19 L 31 19.099609 C 28 20.899609 26 24.6 26 29 C 26 33.4 28.1 37.100391 31 38.900391 L 31 41 C 31 41.6 31.4 42 32 42 C 32.6 42 33 41.6 33 41 L 33 39.699219 C 33.6 39.899219 34.3 40 35 40 C 35.7 40 36.4 39.899219 37 39.699219 L 37 41 C 37 41.6 37.4 42 38 42 C 38.6 42 39 41.6 39 41 L 39 39 L 39 38.900391 C 42 37.100391 44 33.4 44 29 C 44 24.6 41.9 20.899609 39 19.099609 L 39 17 C 39 16.4 38.6 16 38 16 C 37.4 16 37 16.4 37 17 L 37 18.300781 C 36.4 18.100781 35.7 18 35 18 C 34.3 18 33.6 18.100781 33 18.300781 L 33 17 C 33 16.4 32.6 16 32 16 z M 43 16 C 42.4 16 42 16.4 42 17 L 42 19 C 42 19.6 42.4 20 43 20 C 43.6 20 44 19.6 44 19 L 44 17 C 44 16.4 43.6 16 43 16 z M 48 16 C 47.4 16 47 16.4 47 17 L 47 19 C 47 19.6 47.4 20 48 20 C 48.6 20 49 19.6 49 19 L 49 17 C 49 16.4 48.6 16 48 16 z M 12 17 C 11.4 17 11 17.4 11 18 C 11 18.6 11.4 19 12 19 L 17 19 C 17.6 19 18 18.6 18 18 C 18 17.4 17.6 17 17 17 L 12 17 z M 53 17 C 52.4 17 52 17.4 52 18 C 52 18.6 52.4 19 53 19 L 58 19 C 58.6 19 59 18.6 59 18 C 59 17.4 58.6 17 58 17 L 53 17 z M 35 19.800781 C 35.26 19.800781 35.519297 19.819375 35.779297 19.859375 C 36.059297 19.889375 36.329844 19.949062 36.589844 20.039062 C 37.099844 20.179063 37.579063 20.399687 38.039062 20.679688 C 38.679063 21.079687 39.280781 21.610469 39.800781 22.230469 C 40.320781 22.840469 40.759375 23.549844 41.109375 24.339844 C 41.739375 25.699844 42.099609 27.3 42.099609 29 C 42.099609 34.1 38.9 38.199219 35 38.199219 C 33.6 38.199219 32.299219 37.679531 31.199219 36.769531 C 30.629219 36.299531 30.109688 35.730312 29.679688 35.070312 C 29.209688 34.390313 28.819062 33.629063 28.539062 32.789062 C 28.319063 32.179063 28.150781 31.529375 28.050781 30.859375 C 28.040781 30.859375 28.050781 30.849609 28.050781 30.849609 C 27.990781 30.489609 27.949688 30.12 27.929688 29.75 C 27.909688 29.5 27.900391 29.25 27.900391 29 C 27.900391 23.9 31.1 19.800781 35 19.800781 z M 4 20 L 7 20 L 7 42 L 7 43 C 7 44.7 8.3 46 10 46 L 55 46 L 55 49 C 55 49.6 54.6 50 54 50 L 4 50 C 3.4 50 3 49.6 3 49 L 3 21 C 3 20.4 3.4 20 4 20 z M 17 26 C 14.8 26 13 27.8 13 30 C 13 32.2 14.8 34 17 34 C 19.2 34 21 32.2 21 30 C 21 27.8 19.2 26 17 26 z M 53 26 C 50.8 26 49 27.8 49 30 C 49 32.2 50.8 34 53 34 C 55.2 34 57 32.2 57 30 C 57 27.8 55.2 26 53 26 z M 17 27.800781 C 18.2 27.800781 19.199219 28.8 19.199219 30 C 19.199219 31.2 18.2 32.199219 17 32.199219 C 15.8 32.199219 14.800781 31.2 14.800781 30 C 14.800781 28.8 15.8 27.800781 17 27.800781 z M 53 27.800781 C 54.2 27.800781 55.199219 28.8 55.199219 30 C 55.199219 31.2 54.2 32.199219 53 32.199219 C 51.8 32.199219 50.800781 31.2 50.800781 30 C 50.800781 28.8 51.8 27.800781 53 27.800781 z M 22 38 C 21.4 38 21 38.4 21 39 L 21 41 C 21 41.6 21.4 42 22 42 C 22.6 42 23 41.6 23 41 L 23 39 C 23 38.4 22.6 38 22 38 z M 27 38 C 26.4 38 26 38.4 26 39 L 26 41 C 26 41.6 26.4 42 27 42 C 27.6 42 28 41.6 28 41 L 28 39 C 28 38.4 27.6 38 27 38 z M 43 38 C 42.4 38 42 38.4 42 39 L 42 41 C 42 41.6 42.4 42 43 42 C 43.6 42 44 41.6 44 41 L 44 39 C 44 38.4 43.6 38 43 38 z M 48 38 C 47.4 38 47 38.4 47 39 L 47 41 C 47 41.6 47.4 42 48 42 C 48.6 42 49 41.6 49 41 L 49 39 C 49 38.4 48.6 38 48 38 z M 12 39 C 11.4 39 11 39.4 11 40 C 11 40.6 11.4 41 12 41 L 17 41 C 17.6 41 18 40.6 18 40 C 18 39.4 17.6 39 17 39 L 12 39 z M 53 39 C 52.4 39 52 39.4 52 40 C 52 40.6 52.4 41 53 41 L 58 41 C 58.6 41 59 40.6 59 40 C 59 39.4 58.6 39 58 39 L 53 39 z"/></svg>