<svg xmlns="http://www.w3.org/2000/svg"  viewBox="0 0 64 64" width="64px" height="64px"><path d="M 17 4 C 9.8324839 4 4 9.8324839 4 17 L 4 47 C 4 54.167516 9.8324839 60 17 60 L 47 60 C 54.167516 60 60 54.167516 60 47 L 60 17 C 60 15.884615 59.843661 14.807214 59.578125 13.773438 A 1.0001 1.0001 0 0 0 59.472656 13.367188 C 58.628949 10.476299 56.81199 7.9994853 54.394531 6.3203125 A 1.0001 1.0001 0 0 0 53.599609 5.8203125 C 51.662193 4.6720604 49.41047 4 47 4 L 17 4 z M 17 6 L 47 6 C 48.849376 6 50.587379 6.4593746 52.115234 7.2617188 C 51.491527 8.3363743 50.072707 10.78843 48.400391 13.804688 C 48.04216 14.45029 48.05481 15.262505 48.486328 15.896484 C 49.262497 17.037235 51.308249 19.353029 55.166016 20.007812 A 1.0001 1.0001 0 0 0 55.167969 20.007812 C 56.029885 20.153547 56.854054 19.707102 57.244141 18.960938 C 57.476704 18.517821 57.740024 17.989289 58 17.480469 L 58 47 C 58 53.086484 53.086484 58 47 58 L 17 58 C 10.913516 58 6 53.086484 6 47 L 6 17 C 6 10.913516 10.913516 6 17 6 z M 53.792969 8.3515625 C 55.542474 9.7264829 56.864684 11.616045 57.525391 13.800781 C 57.431244 14.043237 57.17836 14.660183 56.826172 15.380859 C 56.405718 16.241229 55.896558 17.227057 55.476562 18.027344 C 52.283889 17.475822 50.716712 15.616218 50.140625 14.769531 C 50.150125 14.783511 50.142638 14.785751 50.148438 14.775391 A 1.0001 1.0001 0 0 0 50.150391 14.775391 C 51.772718 11.849294 53.137796 9.4822491 53.792969 8.3515625 z M 46.986328 17.988281 A 1.0001 1.0001 0 0 0 46.859375 18 A 1.0001 1.0001 0 0 0 46.046875 18.662109 C 45.988133 18.771435 45.928012 18.889903 45.869141 19 L 19 19 A 1.0001 1.0001 0 1 0 19 21 L 44.822266 21 C 43.799615 22.967759 42.793528 24.980439 41.835938 27 L 36 27 A 1.0001 1.0001 0 1 0 36 29 L 40.912109 29 C 40.121402 30.731294 39.369542 32.431879 38.742188 34.005859 C 38.466696 34.697043 38.217625 35.357729 37.984375 36 L 19 36 A 1.0001 1.0001 0 1 0 19 38 L 37.310547 38 C 37.069272 38.77915 36.862635 39.519648 36.724609 40.177734 C 36.548061 41.019491 36.455486 41.750479 36.503906 42.416016 C 36.524244 42.695564 36.585272 42.983356 36.685547 43.257812 A 1.0001 1.0001 0 0 0 36.675781 43.283203 C 36.675781 43.283203 36.064873 45 33.673828 45 C 31.373695 45 30.719671 44.44707 29.914062 43.746094 C 29.108454 43.045117 28.017575 42.001953 26 42.001953 C 24.423679 42.001953 23.54923 42.714031 22.849609 43.154297 C 22.149988 43.594562 21.3668 44 19 44 A 1.0001 1.0001 0 1 0 19 46 C 21.6332 46 23.026184 45.406391 23.914062 44.847656 C 24.801942 44.288922 24.926321 44.001953 26 44.001953 C 27.439425 44.001953 27.684421 44.457836 28.601562 45.255859 C 29.518704 46.053883 30.973961 47 33.673828 47 C 36.428392 47 37.82416 45.194246 38.292969 44.441406 C 38.726466 44.439417 39.149601 44.299238 39.501953 44.107422 C 40.086041 43.789453 40.654439 43.315253 41.28125 42.707031 C 42.534871 41.490587 43.986423 39.723356 45.542969 37.638672 C 48.656061 33.469304 52.157442 28.044269 54.859375 23.511719 A 1.0004596 1.0004596 0 0 0 54.996094 23.070312 A 1.0001908 1.0001908 0 0 0 55 23.015625 A 1.0004596 1.0004596 0 0 0 54.966797 22.740234 A 1.0001908 1.0001908 0 0 0 54.960938 22.71875 A 1.0004596 1.0004596 0 0 0 54.935547 22.644531 A 1.0001908 1.0001908 0 0 0 54.927734 22.625 A 1.0004596 1.0004596 0 0 0 54.894531 22.552734 A 1.0001908 1.0001908 0 0 0 54.884766 22.533203 A 1.0004596 1.0004596 0 0 0 54.845703 22.466797 A 1.0001908 1.0001908 0 0 0 54.84375 22.464844 A 1.0004596 1.0004596 0 0 0 54.789062 22.384766 A 1.0001908 1.0001908 0 0 0 54.775391 22.367188 A 1.0004596 1.0004596 0 0 0 54.650391 22.240234 A 1.0001908 1.0001908 0 0 0 54.648438 22.238281 A 1.0004596 1.0004596 0 0 0 54.396484 22.082031 A 1.0001908 1.0001908 0 0 0 54.376953 22.074219 A 1.0004596 1.0004596 0 0 0 54.302734 22.046875 A 1.0001908 1.0001908 0 0 0 54.283203 22.041016 A 1.0004596 1.0004596 0 0 0 54.242188 22.029297 C 50.740664 21.153916 48.024411 18.593403 47.792969 18.371094 A 1.0001 1.0001 0 0 0 46.986328 17.988281 z M 47.296875 20.591797 C 48.354724 21.45805 50.179727 22.755065 52.476562 23.576172 C 49.903026 27.828242 46.749848 32.680059 43.941406 36.441406 C 42.418827 38.480598 40.997582 40.19546 39.888672 41.271484 C 39.334217 41.809497 38.84887 42.184145 38.544922 42.349609 C 38.52285 42.361625 38.531875 42.355894 38.513672 42.365234 C 38.508044 42.326971 38.504231 42.329629 38.5 42.271484 C 38.47453 41.921451 38.52711 41.326619 38.681641 40.589844 C 38.9907 39.116294 39.677364 37.06483 40.601562 34.746094 C 42.3141 30.449483 44.839578 25.231156 47.296875 20.591797 z M 19 27 A 1.0001 1.0001 0 1 0 19 29 L 25 29 A 1.0001 1.0001 0 1 0 25 27 L 19 27 z M 29 27 A 1.0001 1.0001 0 1 0 29 29 L 32 29 A 1.0001 1.0001 0 1 0 32 27 L 29 27 z M 12 50 C 11.448 50 11 50.448 11 51 L 11 53 C 11 53.552 11.448 54 12 54 C 12.552 54 13 53.552 13 53 L 13 51 C 13 50.448 12.552 50 12 50 z M 17 50 C 16.448 50 16 50.448 16 51 L 16 53 C 16 53.552 16.448 54 17 54 C 17.552 54 18 53.552 18 53 L 18 51 C 18 50.448 17.552 50 17 50 z M 22 50 C 21.448 50 21 50.448 21 51 L 21 53 C 21 53.552 21.448 54 22 54 C 22.552 54 23 53.552 23 53 L 23 51 C 23 50.448 22.552 50 22 50 z M 27 50 C 26.448 50 26 50.448 26 51 L 26 53 C 26 53.552 26.448 54 27 54 C 27.552 54 28 53.552 28 53 L 28 51 C 28 50.448 27.552 50 27 50 z M 32 50 C 31.448 50 31 50.448 31 51 L 31 53 C 31 53.552 31.448 54 32 54 C 32.552 54 33 53.552 33 53 L 33 51 C 33 50.448 32.552 50 32 50 z M 37 50 C 36.448 50 36 50.448 36 51 L 36 53 C 36 53.552 36.448 54 37 54 C 37.552 54 38 53.552 38 53 L 38 51 C 38 50.448 37.552 50 37 50 z M 42 50 C 41.448 50 41 50.448 41 51 L 41 53 C 41 53.552 41.448 54 42 54 C 42.552 54 43 53.552 43 53 L 43 51 C 43 50.448 42.552 50 42 50 z M 47 50 C 46.448 50 46 50.448 46 51 L 46 53 C 46 53.552 46.448 54 47 54 C 47.552 54 48 53.552 48 53 L 48 51 C 48 50.448 47.552 50 47 50 z M 52 50 C 51.448 50 51 50.448 51 51 L 51 53 C 51 53.552 51.448 54 52 54 C 52.552 54 53 53.552 53 53 L 53 51 C 53 50.448 52.552 50 52 50 z"/></svg>