<svg xmlns="http://www.w3.org/2000/svg"  viewBox="0 0 64 64" width="64px" height="64px"><path d="M 52.947266 9.0585938 C 38.572493 9.8146336 24.292182 11.205186 9.9765625 11.958984 C 8.3411185 11.997465 7 13.344841 7 14.988281 L 7 26.992188 C 7 28.638182 8.356612 29.993212 10.001953 29.990234 C 24.328839 30.038244 38.658885 30.198083 52.996094 30.246094 A 1.0001 1.0001 0 0 0 53.001953 30.246094 C 53.906657 30.243594 54.6962 29.754542 55.207031 29.089844 C 55.717822 28.425145 56 27.569941 56 26.648438 L 56 12.148438 C 56 10.449455 54.64463 9.0193451 52.976562 9.0585938 A 1.0001 1.0001 0 0 0 52.947266 9.0585938 z M 53.023438 11.058594 C 53.565372 11.045842 54 11.44142 54 12.148438 L 54 26.648438 C 54 27.150934 53.834012 27.594042 53.621094 27.871094 C 53.408175 28.148145 53.198343 28.24555 52.998047 28.246094 C 38.671161 28.198084 24.341115 28.038245 10.003906 27.990234 A 1.0001 1.0001 0 0 0 9.9980469 27.990234 C 9.433389 27.991256 9 27.560193 9 26.992188 L 9 14.988281 C 9 14.427721 9.448881 13.972503 10.023438 13.958984 A 1.0001 1.0001 0 0 0 10.052734 13.957031 C 24.427507 13.200991 38.707818 11.812393 53.023438 11.058594 z M 50.054688 13.298828 C 49.504687 13.340828 49.092766 13.820094 49.134766 14.371094 L 49.287109 16.365234 C 49.327109 16.891234 49.765203 17.289062 50.283203 17.289062 C 50.309203 17.289062 50.336328 17.287156 50.361328 17.285156 C 50.912328 17.243156 51.32325 16.763891 51.28125 16.212891 L 51.128906 14.21875 C 51.086906 13.66775 50.612687 13.258828 50.054688 13.298828 z M 45.314453 13.662109 C 44.763453 13.705109 44.351531 14.185328 44.394531 14.736328 L 44.548828 16.730469 C 44.589828 17.255469 45.026922 17.652344 45.544922 17.652344 C 45.569922 17.652344 45.597047 17.652391 45.623047 17.650391 C 46.174047 17.607391 46.585969 17.127172 46.542969 16.576172 L 46.388672 14.582031 C 46.345672 14.032031 45.882453 13.623109 45.314453 13.662109 z M 40.576172 14.027344 C 40.025172 14.069344 39.61425 14.550562 39.65625 15.101562 L 39.808594 17.09375 C 39.848594 17.61975 40.286687 18.017578 40.804688 18.017578 C 40.829688 18.017578 40.855813 18.017625 40.882812 18.015625 C 41.432812 17.973625 41.844734 17.492406 41.802734 16.941406 L 41.650391 14.947266 C 41.608391 14.395266 41.121172 13.989344 40.576172 14.027344 z M 35.835938 14.392578 C 35.285938 14.434578 34.874016 14.915797 34.916016 15.466797 L 35.068359 17.458984 C 35.108359 17.984984 35.546453 18.382812 36.064453 18.382812 C 36.090453 18.382812 36.117578 18.382859 36.142578 18.380859 C 36.693578 18.338859 37.1045 17.857641 37.0625 17.306641 L 36.910156 15.3125 C 36.868156 14.7605 36.400937 14.354578 35.835938 14.392578 z M 31.095703 14.755859 C 30.544703 14.798859 30.132781 15.279078 30.175781 15.830078 L 30.330078 17.824219 C 30.371078 18.349219 30.808172 18.746094 31.326172 18.746094 C 31.352172 18.746094 31.378297 18.746141 31.404297 18.744141 C 31.955297 18.701141 32.367219 18.220922 32.324219 17.669922 L 32.169922 15.675781 C 32.126922 15.124781 31.660703 14.708859 31.095703 14.755859 z M 26.357422 15.119141 C 25.806422 15.161141 25.3955 15.642359 25.4375 16.193359 L 25.589844 18.1875 C 25.629844 18.7135 26.067937 19.111328 26.585938 19.111328 C 26.610937 19.111328 26.638063 19.109422 26.664062 19.107422 C 27.214062 19.065422 27.625984 18.584203 27.583984 18.033203 L 27.431641 16.041016 C 27.389641 15.489016 26.899422 15.073141 26.357422 15.119141 z M 21.617188 15.486328 C 21.067188 15.528328 20.655266 16.009547 20.697266 16.560547 L 20.851562 18.552734 C 20.891562 19.078734 21.329656 19.476562 21.847656 19.476562 C 21.872656 19.476563 21.897828 19.476609 21.923828 19.474609 C 22.474828 19.432609 22.887703 18.951391 22.845703 18.400391 L 22.691406 16.40625 C 22.649406 15.85425 22.180187 15.440328 21.617188 15.486328 z M 16.876953 15.849609 C 16.325953 15.892609 15.914031 16.372828 15.957031 16.923828 L 16.111328 18.917969 C 16.152328 19.442969 16.589422 19.841797 17.107422 19.841797 C 17.133422 19.841797 17.159547 19.839891 17.185547 19.837891 C 17.736547 19.794891 18.148469 19.314672 18.105469 18.763672 L 17.951172 16.769531 C 17.908172 16.219531 17.439953 15.804609 16.876953 15.849609 z M 12.138672 16.214844 C 11.587672 16.256844 11.17675 16.736109 11.21875 17.287109 L 11.371094 19.28125 C 11.411094 19.80725 11.849187 20.205078 12.367188 20.205078 C 12.393187 20.205078 12.419313 20.203172 12.445312 20.201172 C 12.995312 20.159172 13.407234 19.679906 13.365234 19.128906 L 13.212891 17.134766 C 13.170891 16.583766 12.677672 16.171844 12.138672 16.214844 z M 10.015625 33.03125 C 8.3655581 33.005864 7 34.365724 7 36.011719 L 7 48.015625 C 7 49.659065 8.33415 51.000593 9.9628906 51.0625 C 15.930626 51.287285 18.863163 51.683648 24.861328 52.525391 C 26.488133 52.753585 28 51.44976 28 49.789062 L 28 36.876953 C 28 35.164276 26.755715 33.636556 25.048828 33.554688 C 19.048219 33.265658 16.025788 33.126411 10.015625 33.03125 z M 34.050781 34.011719 C 32.324131 33.924214 31 35.475027 31 37.214844 L 31 39.505859 C 31 41.238747 32.196703 42.798586 33.902344 42.964844 C 35.902508 43.15986 36.908016 43.258259 38.910156 43.439453 C 39.781207 43.518283 40.610418 43.144097 41.15625 42.539062 C 41.702082 41.934028 42 41.112962 42 40.222656 L 42 37.796875 C 42 36.007586 40.812053 34.342833 39.046875 34.259766 C 37.048204 34.165826 36.050781 34.113719 34.050781 34.011719 z M 48.03125 34.617188 C 47.139401 34.589748 46.333735 35.036897 45.810547 35.677734 C 45.287359 36.318572 45 37.157582 45 38.064453 L 45 40.554688 C 45 42.358165 46.175806 44.031736 47.939453 44.138672 C 49.942934 44.259882 50.961306 44.309769 52.966797 44.376953 C 53.858774 44.406013 54.667906 43.959109 55.191406 43.314453 C 55.714907 42.669797 56 41.824993 56 40.910156 L 56 38.349609 C 56 37.428106 55.717897 36.572319 55.208984 35.90625 C 54.700072 35.240181 53.917995 34.748258 53.015625 34.734375 C 51.018291 34.702415 50.029086 34.678125 48.03125 34.617188 z M 9.984375 35.03125 C 15.974212 35.12609 18.951781 35.263764 24.951172 35.552734 C 25.454285 35.576866 26 36.137631 26 36.876953 L 26 49.789062 C 26 50.398365 25.721867 50.626728 25.138672 50.544922 C 19.136837 49.702664 16.069374 49.291668 10.037109 49.064453 C 9.4558504 49.04236 9 48.576185 9 48.015625 L 9 36.011719 C 9 35.443713 9.4244419 35.022636 9.984375 35.03125 z M 33.949219 36.009766 C 35.949219 36.111766 36.951796 36.16375 38.953125 36.257812 C 39.397947 36.278745 40 36.894164 40 37.796875 L 40 40.222656 C 40 40.66535 39.849793 41.002003 39.671875 41.199219 C 39.493957 41.396434 39.323793 41.468437 39.089844 41.447266 C 37.091984 41.266459 36.097492 41.169593 34.097656 40.974609 A 1.0001 1.0001 0 0 0 34.095703 40.974609 C 33.592425 40.925871 33 40.292314 33 39.505859 L 33 37.214844 C 33 36.41466 33.465869 35.98527 33.949219 36.009766 z M 47.96875 36.617188 C 49.970914 36.678247 50.981709 36.702328 52.984375 36.734375 C 53.187005 36.737475 53.404303 36.839912 53.619141 37.121094 C 53.833978 37.402275 54 37.847113 54 38.349609 L 54 40.910156 C 54 41.400319 53.838921 41.808094 53.638672 42.054688 C 53.438422 42.30128 53.246226 42.385846 53.033203 42.378906 C 51.038694 42.31209 50.057066 42.263368 48.060547 42.142578 C 47.614194 42.115514 47 41.485208 47 40.554688 L 47 38.064453 C 47 37.589324 47.158813 37.187069 47.359375 36.941406 C 47.559937 36.695743 47.755599 36.610629 47.96875 36.617188 z M 33.505859 45.472656 C 32.102671 45.630647 31 46.910272 31 48.386719 L 31 50.503906 C 31 52.175501 32.215781 53.611212 33.851562 53.855469 A 1.0001 1.0001 0 0 0 33.853516 53.855469 C 35.853838 54.153517 36.861669 54.303636 38.865234 54.578125 C 40.517904 54.804179 42 53.427039 42 51.736328 L 42 49.546875 C 42 47.832385 40.822416 46.269106 39.113281 46.074219 C 37.115733 45.845499 36.122558 45.725455 34.123047 45.478516 A 1.0001 1.0001 0 0 0 34.123047 45.476562 C 33.912652 45.450668 33.706315 45.450086 33.505859 45.472656 z M 48.074219 46.945312 C 46.349897 46.815793 45 48.348737 45 50.074219 L 45 52.292969 C 45 53.991951 46.245885 55.466859 47.916016 55.607422 C 49.921953 55.775921 50.953411 55.844566 52.962891 55.919922 C 54.635113 55.983804 56 54.548499 56 52.849609 L 56 50.621094 C 56 48.888796 54.775852 47.306978 53.041016 47.236328 C 51.048165 47.155618 50.069922 47.09499 48.074219 46.945312 z M 33.876953 47.462891 C 35.877442 47.709951 36.884267 47.831266 38.886719 48.060547 A 1.0001 1.0001 0 0 0 38.886719 48.0625 C 39.387584 48.119565 40 48.803365 40 49.546875 L 40 51.736328 C 40 52.424928 39.69319 52.672249 39.136719 52.595703 A 1.0001 1.0001 0 0 0 39.134766 52.595703 C 37.138378 52.322192 36.146162 52.174905 34.146484 51.876953 C 33.573103 51.789699 33 51.141384 33 50.503906 L 33 48.386719 C 33 47.708086 33.350111 47.398049 33.876953 47.462891 z M 47.925781 48.939453 C 49.930078 49.089775 50.951835 49.153085 52.958984 49.234375 C 53.434148 49.253726 54 49.837392 54 50.621094 L 54 52.849609 C 54 53.558039 53.575925 53.940813 53.039062 53.919922 A 1.0001 1.0001 0 0 0 53.037109 53.919922 C 51.046636 53.845277 50.078047 53.782736 48.083984 53.615234 C 47.544115 53.569797 47 52.999986 47 52.292969 L 47 50.074219 C 47 49.3057 47.440103 48.902972 47.925781 48.939453 z"/></svg>