<svg xmlns="http://www.w3.org/2000/svg"  viewBox="0 0 64 64" width="64px" height="64px"><path d="M 43.859375 2.023438 C 40.453125 1.902344 37 2.933594 34.132813 5.160156 L 20.296875 15.921875 C 19.195313 16.777344 17.894531 17.371094 16.53125 17.640625 L 5.503906 19.847656 C 5.425781 19.863281 5.351563 19.878906 5.273438 19.894531 L 4.707031 20.011719 C 4.414063 20.066406 4.1875 20.25 4.046875 20.488281 C 3.984375 20.546875 3.902344 20.578125 3.84375 20.640625 C 0.363281 24.121094 8.5 35.898438 18.34375 45.738281 C 18.621094 46.019531 18.910156 46.3125 19.203125 46.59375 C 19.320313 51.453125 23.3125 55.378906 28.203125 55.378906 C 28.589844 55.378906 28.972656 55.359375 29.34375 55.3125 C 34.050781 58.78125 38.359375 61.050781 41.160156 61.050781 C 42.109375 61.050781 42.882813 60.789063 43.441406 60.230469 C 43.507813 60.164063 43.546875 60.085938 43.605469 60.015625 C 43.832031 59.875 44.011719 59.652344 44.066406 59.371094 L 46.4375 47.542969 C 46.707031 46.179688 47.304688 44.878906 48.15625 43.78125 L 58.917969 29.945313 C 62.878906 24.851563 63.054688 17.894531 59.691406 12.644531 L 61.027344 9.976563 C 62.019531 7.988281 61.632813 5.59375 60.058594 4.019531 L 60.015625 3.976563 C 58.445313 2.4375 56.074219 2.066406 54.097656 3.050781 L 51.433594 4.382813 C 49.136719 2.914063 46.511719 2.121094 43.859375 2.023438 Z M 42.996094 4.007813 C 46.457031 3.921875 49.929688 5.203125 52.53125 7.804688 L 56.269531 11.542969 C 60.894531 16.171875 61.355469 23.554688 57.339844 28.71875 L 46.578125 42.550781 C 45.53125 43.894531 44.804688 45.484375 44.472656 47.152344 L 43.152344 53.761719 C 41.71875 50.511719 39.011719 46.527344 35.628906 42.453125 C 35.25 42 34.859375 41.539063 34.46875 41.078125 C 34.070313 40.621094 33.667969 40.160156 33.261719 39.703125 C 32.839844 39.242188 32.421875 38.769531 31.988281 38.3125 C 31.984375 38.304688 31.980469 38.304688 31.972656 38.296875 C 30.992188 37.230469 29.984375 36.164063 28.953125 35.128906 C 23.792969 29.980469 18.449219 25.609375 13.910156 22.828125 C 12.613281 22.035156 11.429688 21.402344 10.351563 20.921875 L 16.925781 19.605469 C 18.59375 19.273438 20.179688 18.546875 21.523438 17.5 L 35.359375 6.738281 C 37.617188 4.980469 40.304688 4.078125 42.996094 4.007813 Z M 56.429688 4.507813 C 57.242188 4.511719 58.039063 4.828125 58.640625 5.429688 L 58.667969 5.453125 C 59.613281 6.417969 59.839844 7.871094 59.234375 9.078125 L 58.347656 10.859375 C 58.132813 10.613281 57.917969 10.363281 57.683594 10.128906 L 53.949219 6.394531 C 53.710938 6.160156 53.464844 5.945313 53.21875 5.726563 L 54.996094 4.839844 C 55.449219 4.609375 55.941406 4.503906 56.429688 4.507813 Z M 44.3125 7.0625 C 43.761719 7.007813 43.273438 7.398438 43.214844 7.949219 C 43.152344 8.5 43.550781 8.992188 44.097656 9.050781 C 44.699219 9.113281 45.296875 9.242188 45.875 9.429688 C 45.980469 9.460938 46.082031 9.476563 46.183594 9.476563 C 46.605469 9.476563 46.996094 9.207031 47.132813 8.78125 C 47.300781 8.257813 47.011719 7.691406 46.484375 7.523438 C 45.78125 7.296875 45.050781 7.140625 44.3125 7.0625 Z M 40.363281 7.433594 C 40.234375 7.421875 40.101563 7.433594 39.96875 7.472656 C 38.695313 7.863281 37.515625 8.476563 36.464844 9.296875 L 32.511719 12.367188 C 32.074219 12.707031 31.996094 13.332031 32.335938 13.769531 C 32.53125 14.023438 32.828125 14.15625 33.125 14.15625 C 33.339844 14.15625 33.554688 14.089844 33.738281 13.945313 L 37.6875 10.871094 C 38.550781 10.199219 39.515625 9.703125 40.550781 9.382813 C 41.082031 9.222656 41.378906 8.664063 41.21875 8.136719 C 41.09375 7.742188 40.75 7.472656 40.363281 7.433594 Z M 54.703125 18.902344 C 54.449219 18.902344 54.191406 18.996094 54 19.191406 C 53.605469 19.585938 53.605469 20.214844 54 20.609375 L 55.410156 22.019531 C 55.605469 22.214844 55.863281 22.3125 56.121094 22.3125 C 56.375 22.3125 56.632813 22.214844 56.828125 22.019531 C 57.21875 21.628906 57.21875 21 56.828125 20.609375 L 55.410156 19.191406 C 55.214844 18.996094 54.960938 18.902344 54.703125 18.902344 Z M 6.171875 21.789063 C 7.28125 21.789063 9.390625 22.410156 12.871094 24.539063 C 17.277344 27.238281 22.488281 31.5 27.53125 36.539063 C 27.808594 36.820313 28.089844 37.101563 28.359375 37.378906 L 28.199219 37.378906 C 24.039063 37.378906 20.519531 40.230469 19.5 44.070313 C 8.460938 32.960938 3.679688 23.628906 5.257813 22.050781 C 5.324219 21.984375 5.425781 21.925781 5.554688 21.878906 L 5.921875 21.804688 C 6 21.796875 6.078125 21.789063 6.171875 21.789063 Z M 51.171875 22.4375 C 50.914063 22.4375 50.660156 22.53125 50.464844 22.730469 C 50.070313 23.117188 50.070313 23.75 50.464844 24.140625 L 51.875 25.558594 C 52.070313 25.753906 52.328125 25.851563 52.582031 25.851563 C 52.839844 25.851563 53.097656 25.753906 53.292969 25.558594 C 53.683594 25.167969 53.683594 24.535156 53.292969 24.144531 L 51.875 22.730469 C 51.679688 22.53125 51.425781 22.4375 51.171875 22.4375 Z M 47.636719 25.972656 C 47.378906 25.972656 47.125 26.070313 46.925781 26.265625 C 46.535156 26.65625 46.535156 27.289063 46.925781 27.679688 L 48.34375 29.09375 C 48.535156 29.289063 48.792969 29.386719 49.046875 29.386719 C 49.304688 29.386719 49.5625 29.289063 49.753906 29.09375 C 50.148438 28.703125 50.148438 28.070313 49.753906 27.679688 L 48.34375 26.265625 C 48.144531 26.070313 47.890625 25.972656 47.636719 25.972656 Z M 44.097656 29.507813 C 43.84375 29.507813 43.589844 29.605469 43.390625 29.800781 C 43 30.191406 43 30.824219 43.390625 31.214844 L 44.808594 32.628906 C 45 32.824219 45.257813 32.921875 45.515625 32.921875 C 45.769531 32.921875 46.027344 32.824219 46.21875 32.628906 C 46.613281 32.238281 46.613281 31.605469 46.21875 31.214844 L 44.808594 29.800781 C 44.609375 29.605469 44.355469 29.507813 44.097656 29.507813 Z M 40.5625 33.042969 C 40.304688 33.042969 40.050781 33.140625 39.855469 33.339844 C 39.464844 33.730469 39.464844 34.359375 39.855469 34.75 L 41.269531 36.164063 C 41.464844 36.359375 41.722656 36.457031 41.980469 36.457031 C 42.234375 36.457031 42.492188 36.359375 42.6875 36.164063 C 43.078125 35.773438 43.078125 35.144531 42.6875 34.75 L 41.269531 33.339844 C 41.074219 33.140625 40.820313 33.042969 40.5625 33.042969 Z M 37.027344 36.578125 C 36.773438 36.578125 36.515625 36.675781 36.320313 36.871094 C 35.929688 37.261719 35.929688 37.894531 36.320313 38.285156 L 37.734375 39.699219 C 37.929688 39.894531 38.183594 39.992188 38.441406 39.992188 C 38.699219 39.992188 38.953125 39.894531 39.148438 39.699219 C 39.539063 39.308594 39.539063 38.675781 39.148438 38.285156 L 37.734375 36.871094 C 37.539063 36.675781 37.28125 36.578125 37.027344 36.578125 Z M 28.199219 39.378906 C 29.050781 39.378906 29.878906 39.53125 30.679688 39.828125 C 31.460938 40.679688 32.21875 41.539063 32.9375 42.378906 C 33.667969 43.222656 34.359375 44.0625 35.03125 44.878906 L 35.03125 44.890625 C 35.140625 45.410156 35.199219 45.890625 35.199219 46.378906 C 35.199219 49.671875 32.917969 52.441406 29.847656 53.179688 C 29.320313 53.308594 28.769531 53.378906 28.199219 53.378906 C 27.648438 53.378906 27.109375 53.320313 26.597656 53.1875 C 24.359375 52.667969 22.53125 51.058594 21.6875 48.949219 C 21.371094 48.160156 21.199219 47.289063 21.199219 46.378906 C 21.199219 46.179688 21.210938 45.980469 21.230469 45.78125 C 21.53125 42.199219 24.539063 39.378906 28.199219 39.378906 Z M 37.109375 47.621094 C 40.589844 52.402344 42.332031 56.125 42.324219 57.902344 L 42.183594 58.605469 C 42.140625 58.6875 42.089844 58.761719 42.03125 58.820313 C 41.070313 59.78125 37.210938 58.378906 31.820313 54.621094 C 34.621094 53.378906 36.679688 50.757813 37.109375 47.621094 Z"/></svg>