<svg xmlns="http://www.w3.org/2000/svg"  viewBox="0 0 64 64" width="64px" height="64px"><path d="M 51.140625 4.101563 C 46.621094 4.035156 41.5625 6.449219 38.59375 9.417969 C 37.464844 10.546875 36.761719 11.636719 36.359375 12.71875 C 34.933594 11.65625 33.34375 10.808594 31.347656 10.589844 L 24.5625 9.835938 L 21.621094 9.417969 C 20.074219 9.195313 18.488281 9.722656 17.378906 10.828125 L 1.640625 26.5625 C 0.191406 28.015625 -0.226563 30.253906 0.609375 32.128906 L 4.085938 39.953125 C 4.851563 41.675781 5.953125 43.179688 7.375 44.433594 L 10.648438 47.261719 L 10.296875 47.609375 C 8.976563 48.929688 8.25 50.6875 8.25 52.558594 C 8.25 54.429688 8.976563 56.1875 10.296875 57.511719 C 11.664063 58.875 13.453125 59.558594 15.25 59.558594 C 17.042969 59.558594 18.832031 58.875 20.199219 57.511719 L 21.273438 56.433594 L 24.066406 58.847656 C 24.9375 59.609375 26.027344 59.984375 27.109375 59.984375 C 28.300781 59.984375 29.488281 59.535156 30.386719 58.636719 C 31.253906 57.765625 31.734375 56.609375 31.734375 55.375 C 31.734375 55.203125 31.722656 55.027344 31.703125 54.855469 C 33.390625 55.472656 35.34375 55.089844 36.671875 53.765625 C 37.632813 52.804688 38.089844 51.53125 38.046875 50.269531 C 39.871094 51.324219 42.21875 51.042969 43.742188 49.519531 C 44.933594 48.332031 45.355469 46.65625 45.003906 45.125 C 46.542969 45.476563 48.21875 45.042969 49.402344 43.863281 L 49.640625 43.625 C 51.347656 41.914063 51.445313 39.148438 49.863281 37.324219 L 45.464844 32.246094 L 46.984375 30.722656 C 51.210938 32.050781 54.582031 33.027344 58.390625 29.214844 C 62.03125 25.574219 64.847656 18.769531 63.25 13.691406 C 63.148438 13.359375 62.875 13.105469 62.535156 13.023438 C 62.195313 12.9375 61.835938 13.039063 61.589844 13.285156 L 55.347656 19.527344 C 55.097656 19.777344 54.726563 19.875 54.386719 19.785156 L 53.292969 19.492188 C 50.882813 18.847656 48.988281 16.949219 48.34375 14.542969 L 48.046875 13.449219 C 47.957031 13.105469 48.054688 12.734375 48.308594 12.484375 L 54.558594 6.230469 C 54.804688 5.984375 54.90625 5.625 54.824219 5.289063 C 54.742188 4.949219 54.488281 4.675781 54.15625 4.570313 C 53.203125 4.265625 52.1875 4.117188 51.140625 4.101563 Z M 51.050781 6.113281 C 51.308594 6.113281 51.5625 6.125 51.8125 6.144531 L 46.890625 11.066406 C 46.132813 11.820313 45.839844 12.933594 46.113281 13.964844 L 46.40625 15.058594 C 47.238281 18.15625 49.675781 20.59375 52.769531 21.421875 L 53.863281 21.71875 C 54.898438 21.996094 56.007813 21.695313 56.765625 20.9375 L 61.667969 16.035156 C 61.976563 20.035156 59.722656 25.054688 56.976563 27.800781 C 53.953125 30.820313 51.613281 30.085938 47.359375 28.746094 L 47.003906 28.632813 C 46.648438 28.523438 46.257813 28.617188 45.996094 28.878906 L 44.148438 30.730469 L 37.582031 23.152344 L 38.925781 21.808594 C 39.191406 21.546875 39.285156 21.15625 39.171875 20.800781 L 39.0625 20.445313 C 37.71875 16.191406 36.980469 13.851563 40.003906 10.828125 C 42.589844 8.246094 47.183594 6.105469 51.050781 6.113281 Z M 20.640625 11.378906 C 20.867188 11.355469 21.101563 11.363281 21.335938 11.394531 L 24.308594 11.820313 C 24.3125 11.820313 24.316406 11.816406 24.320313 11.816406 C 24.328125 11.820313 24.332031 11.824219 24.339844 11.824219 L 31.125 12.574219 C 33.015625 12.785156 34.464844 13.710938 35.910156 14.917969 C 35.832031 16.777344 36.410156 18.691406 37.082031 20.824219 L 36.265625 21.636719 L 33.6875 18.660156 C 33.328125 18.242188 32.695313 18.199219 32.277344 18.5625 C 31.859375 18.921875 31.816406 19.554688 32.175781 19.96875 L 48.351563 38.632813 C 49.25 39.667969 49.195313 41.238281 48.222656 42.207031 L 47.984375 42.449219 C 47.015625 43.417969 45.472656 43.515625 44.390625 42.671875 L 40.621094 39.738281 C 40.203125 39.414063 39.605469 39.46875 39.257813 39.867188 C 38.90625 40.261719 38.925781 40.863281 39.296875 41.234375 L 42.328125 44.265625 C 43.386719 45.324219 43.386719 47.046875 42.328125 48.109375 C 41.359375 49.074219 39.816406 49.171875 38.734375 48.328125 L 34.964844 45.394531 C 34.546875 45.070313 33.949219 45.125 33.597656 45.523438 C 33.25 45.917969 33.269531 46.519531 33.640625 46.890625 L 35.253906 48.503906 C 36.316406 49.566406 36.316406 51.289063 35.253906 52.347656 C 34.289063 53.316406 32.742188 53.410156 31.664063 52.574219 L 27.890625 49.640625 C 27.476563 49.3125 26.878906 49.367188 26.527344 49.765625 C 26.179688 50.160156 26.195313 50.761719 26.570313 51.136719 L 28.96875 53.53125 C 29.460938 54.023438 29.734375 54.679688 29.734375 55.375 C 29.734375 56.074219 29.460938 56.730469 28.96875 57.222656 C 27.996094 58.195313 26.417969 58.25 25.378906 57.339844 L 8.6875 42.925781 C 7.492188 41.871094 6.5625 40.601563 5.914063 39.144531 L 2.4375 31.316406 C 1.9375 30.191406 2.1875 28.851563 3.054688 27.980469 L 18.792969 12.246094 C 19.289063 11.746094 19.949219 11.445313 20.640625 11.378906 Z M 42.125 17.609375 C 41.871094 17.609375 41.617188 17.707031 41.421875 17.902344 C 41.027344 18.292969 41.027344 18.925781 41.421875 19.316406 L 48.488281 26.386719 C 48.683594 26.582031 48.941406 26.679688 49.199219 26.679688 C 49.453125 26.679688 49.710938 26.582031 49.90625 26.386719 C 50.296875 25.996094 50.296875 25.363281 49.90625 24.972656 L 42.832031 17.902344 C 42.636719 17.707031 42.382813 17.609375 42.125 17.609375 Z M 35.761719 32.457031 C 35.503906 32.457031 35.25 32.554688 35.054688 32.75 C 34.664063 33.144531 34.664063 33.773438 35.054688 34.164063 L 36.46875 35.578125 C 36.664063 35.773438 36.921875 35.871094 37.175781 35.871094 C 37.433594 35.871094 37.691406 35.773438 37.886719 35.578125 C 38.277344 35.1875 38.277344 34.554688 37.886719 34.164063 L 36.46875 32.75 C 36.273438 32.554688 36.019531 32.457031 35.761719 32.457031 Z M 32.226563 35.996094 C 31.96875 35.996094 31.714844 36.089844 31.519531 36.285156 C 31.128906 36.675781 31.128906 37.3125 31.519531 37.703125 L 32.9375 39.113281 C 33.128906 39.308594 33.386719 39.40625 33.640625 39.40625 C 33.898438 39.40625 34.15625 39.308594 34.347656 39.113281 C 34.742188 38.722656 34.742188 38.089844 34.347656 37.703125 L 32.933594 36.285156 C 32.738281 36.089844 32.484375 35.996094 32.226563 35.996094 Z M 28.691406 39.53125 C 28.4375 39.53125 28.179688 39.625 27.984375 39.824219 C 27.59375 40.210938 27.59375 40.84375 27.984375 41.234375 L 29.398438 42.652344 C 29.59375 42.84375 29.847656 42.941406 30.105469 42.941406 C 30.363281 42.941406 30.617188 42.84375 30.8125 42.652344 C 31.203125 42.261719 31.203125 41.628906 30.8125 41.234375 L 29.398438 39.824219 C 29.203125 39.625 28.945313 39.53125 28.691406 39.53125 Z M 25.15625 43.0625 C 24.902344 43.0625 24.644531 43.160156 24.449219 43.359375 C 24.058594 43.75 24.058594 44.378906 24.449219 44.769531 L 25.863281 46.1875 C 26.058594 46.378906 26.3125 46.480469 26.570313 46.480469 C 26.828125 46.480469 27.082031 46.378906 27.277344 46.1875 C 27.667969 45.792969 27.667969 45.164063 27.277344 44.769531 L 25.863281 43.359375 C 25.667969 43.160156 25.410156 43.0625 25.15625 43.0625 Z M 21.621094 46.597656 C 21.363281 46.597656 21.109375 46.695313 20.910156 46.890625 C 20.519531 47.285156 20.519531 47.914063 20.910156 48.308594 L 22.328125 49.71875 C 22.519531 49.914063 22.777344 50.015625 23.03125 50.015625 C 23.289063 50.015625 23.546875 49.914063 23.738281 49.71875 C 24.132813 49.328125 24.132813 48.699219 23.738281 48.308594 L 22.328125 46.890625 C 22.128906 46.695313 21.875 46.597656 21.621094 46.597656 Z M 12.164063 48.566406 L 19.753906 55.125 L 18.78125 56.09375 C 16.832031 58.042969 13.660156 58.042969 11.710938 56.09375 C 10.765625 55.152344 10.246094 53.894531 10.246094 52.558594 C 10.246094 51.222656 10.765625 49.96875 11.710938 49.023438 Z"/></svg>